<?xml version="1.0" encoding="iso-8859-1"?>
<!-- Generator: Adobe Illustrator 19.0.0, SVG Export Plug-In . SVG Version: 6.00 Build 0)  -->
<svg xmlns="http://www.w3.org/2000/svg" xmlns:xlink="http://www.w3.org/1999/xlink" version="1.1" id="Layer_1" x="0px" y="0px" viewBox="0 0 512 512" style="enable-background:new 0 0 512 512;" xml:space="preserve" width="512" height="512">
<g>
	<g>
		<g>
			<path d="M257.978,250.538c0-0.195,0.098-0.585,0.195-0.976l18.83-61.368c0.878-2.927,4.488-4.293,8.098-4.293     c3.708,0,7.317,1.366,8.195,4.293l18.83,61.368c0.098,0.391,0.195,0.683,0.195,0.976c0,3.024-4.585,5.269-8,5.269     c-2.146,0-3.805-0.683-4.293-2.537l-3.707-12.976h-22.342l-3.708,12.976c-0.488,1.854-2.146,2.537-4.293,2.537     C262.563,255.807,257.978,253.66,257.978,250.538z M293.589,230.342l-8.488-29.952l-8.488,29.952H293.589z"/>
			<path d="M346.569,184.487c12.878,0,22.928,6.049,22.928,22.342v26.635c0,16.294-10.049,22.343-22.928,22.343H329.3     c-3.317,0-5.561-1.854-5.561-3.902V188.39c0-2.049,2.244-3.902,5.561-3.902H346.569z M336.422,195.609v49.075h10.147     c6.439,0,10.244-3.61,10.244-11.221v-26.635c0-7.61-3.805-11.22-10.244-11.22H336.422z"/>
			<path d="M414.574,236.781c0-14.635-31.318-10.146-31.318-33.27c0-14.537,12.488-19.513,23.708-19.513     c5.756,0,18.537,1.366,18.537,7.806c0,2.243-1.561,6.731-5.073,6.731c-3.024,0-5.269-3.707-13.464-3.707     c-7.025,0-11.025,2.829-11.025,7.512c0,12.099,31.318,7.903,31.318,33.173c0,13.951-9.757,21.171-23.221,21.171     c-12.781,0-22.538-6.439-22.538-12.098c0-2.732,2.537-6.83,5.562-6.83c4,0,6.634,7.513,16.586,7.513     C409.5,245.27,414.574,242.636,414.574,236.781z"/>
		</g>
	</g>
	<g>
		<path d="M434.484,121.227H245.591c-30.442,0-55.209,24.767-55.209,55.209v87.792c0,30.442,24.767,55.209,55.209,55.209h18.496    l-12.152,54.4c-1.406,6.294,1.416,12.665,7.021,15.854c2.273,1.293,4.762,1.926,7.23,1.926c3.62,0,7.197-1.36,9.987-3.99    l72.321-68.19h85.99c30.442,0,55.209-24.767,55.209-55.209v-87.792C489.693,145.993,464.927,121.227,434.484,121.227z     M474.693,264.228c0,22.171-18.038,40.209-40.209,40.209h-88.968c-1.913,0-3.753,0.73-5.145,2.043l-73.5,69.3l13.896-62.208    c0.496-2.222-0.043-4.548-1.467-6.324s-3.577-2.811-5.853-2.811h-27.856c-22.171,0-40.209-18.038-40.209-40.209v-87.792    c0-22.171,18.038-40.209,40.209-40.209h188.893c22.171,0,40.209,18.038,40.209,40.209V264.228z"/>
		<path d="M365.957,334.474c-4.142,0-7.5,3.357-7.5,7.5v99.071H37.307V71.81h321.15v26.867c0,4.143,3.358,7.5,7.5,7.5    s7.5-3.357,7.5-7.5V34.339C373.457,15.404,358.053,0,339.119,0H56.645C37.711,0,22.307,15.404,22.307,34.339v443.322    c0,18.935,15.404,34.339,34.338,34.339h282.474c18.934,0,34.338-15.404,34.338-34.339V341.974    C373.457,337.831,370.099,334.474,365.957,334.474z M56.645,15h282.474c10.663,0,19.338,8.676,19.338,19.339V56.81H37.307V34.339    C37.307,23.676,45.982,15,56.645,15z M339.119,497H56.645c-10.663,0-19.338-8.676-19.338-19.339v-21.616h321.15v21.616    C358.457,488.324,349.782,497,339.119,497z"/>
	</g>
</g>















</svg>
