<?xml version="1.0" encoding="iso-8859-1"?>
<!-- Generator: Adobe Illustrator 19.0.0, SVG Export Plug-In . SVG Version: 6.00 Build 0)  -->
<svg xmlns="http://www.w3.org/2000/svg" xmlns:xlink="http://www.w3.org/1999/xlink" version="1.1" id="Layer_1" x="0px" y="0px" viewBox="0 0 512 512" style="enable-background:new 0 0 512 512;" xml:space="preserve" width="512" height="512">
<g>
	<g>
		<path d="M60.017,321.556V93.403h26.808c4.142,0,7.5-3.357,7.5-7.5s-3.358-7.5-7.5-7.5H52.517c-4.142,0-7.5,3.357-7.5,7.5v243.152    c0,4.143,3.358,7.5,7.5,7.5h406.965c4.142,0,7.5-3.357,7.5-7.5V85.903c0-4.143-3.358-7.5-7.5-7.5h-34.308    c-4.142,0-7.5,3.357-7.5,7.5s3.358,7.5,7.5,7.5h26.808v228.152h-49.306V17.791c0-9.81-7.981-17.791-17.791-17.791H127.114    c-9.81,0-17.791,7.981-17.791,17.791v303.765H60.017z M124.324,17.791c0-1.539,1.252-2.791,2.791-2.791h257.771    c1.539,0,2.791,1.252,2.791,2.791v303.765H124.324V17.791z"/>
		<path d="M467.497,51.643h-42.322c-4.142,0-7.5,3.357-7.5,7.5s3.358,7.5,7.5,7.5h42.322c5.693,0,10.324,4.632,10.324,10.324    v272.272H34.179V76.967c0-5.692,4.631-10.324,10.324-10.324h42.321c4.142,0,7.5-3.357,7.5-7.5s-3.358-7.5-7.5-7.5H44.503    c-13.964,0-25.324,11.36-25.324,25.324v313.365c0,13.964,11.36,25.324,25.324,25.324h173.351    c-4.052,17.945-10.875,34.696-20.349,49.946h-11.133c-17.313,0-31.398,14.085-31.398,31.398c0,8.271,6.729,14.999,14.999,14.999    h172.054c8.271,0,14.999-6.729,14.999-14.999c0-17.313-14.085-31.398-31.398-31.398h-11.133    c-9.474-15.25-16.297-32.001-20.349-49.946h173.351c13.964,0,25.324-11.36,25.324-25.324V76.967    C492.821,63.003,481.46,51.643,467.497,51.643z M342.036,497l-172.062,0.001c0-9.042,7.356-16.398,16.398-16.398h139.256    C334.67,480.603,342.026,487.959,342.036,497z M297.121,465.603h-82.241c8.51-15.46,14.648-32.191,18.321-49.946h45.6    C282.472,433.412,288.611,450.143,297.121,465.603z M467.497,400.656H44.503c-5.693,0-10.324-4.632-10.324-10.324v-26.093h443.642    v26.093C477.821,396.024,473.189,400.656,467.497,400.656z"/>
		<path d="M363.237,216.835H148.763c-4.142,0-7.5,3.357-7.5,7.5s3.358,7.5,7.5,7.5h214.475c4.142,0,7.5-3.357,7.5-7.5    S367.379,216.835,363.237,216.835z"/>
		<path d="M255.818,255.5H148.763c-4.142,0-7.5,3.357-7.5,7.5s3.358,7.5,7.5,7.5h107.056c4.142,0,7.5-3.357,7.5-7.5    S259.96,255.5,255.818,255.5z"/>
		<path d="M148.763,160.202c1.899,0,3.801-0.718,5.262-2.155l49.99-49.22c4.481,3.836,10.297,6.156,16.644,6.156    c6.143,0,11.788-2.173,16.207-5.79l29.777,29.319c-0.37,1.731-0.566,3.526-0.566,5.366c0,14.131,11.497,25.628,25.627,25.628    c14.131,0,25.628-11.497,25.628-25.628c0-1.816-0.19-3.589-0.551-5.299L368.5,87.655c2.951-2.906,2.988-7.655,0.082-10.606    c-2.906-2.952-7.654-2.989-10.606-0.083l-48.867,48.115c-4.574-4.238-10.691-6.832-17.403-6.832    c-6.691,0-12.792,2.578-17.361,6.793l-29.053-28.606c0.648-2.25,0.996-4.626,0.996-7.082c0-14.131-11.497-25.628-25.627-25.628    c-14.131,0-25.628,11.497-25.628,25.628c0,2.229,0.286,4.392,0.823,6.455L143.5,147.357c-2.951,2.906-2.988,7.655-0.082,10.606    C144.886,159.455,146.824,160.202,148.763,160.202z M291.705,133.249c5.86,0,10.628,4.768,10.628,10.628    s-4.768,10.628-10.628,10.628c-5.86,0-10.627-4.768-10.627-10.628S285.845,133.249,291.705,133.249z M220.659,78.727    c5.86,0,10.627,4.768,10.627,10.628s-4.768,10.628-10.627,10.628c-5.86,0-10.628-4.768-10.628-10.628    S214.798,78.727,220.659,78.727z"/>
	</g>
</g>















</svg>
