<svg xmlns="http://www.w3.org/2000/svg" height="512pt" version="1.1" viewBox="0 0 512 512" width="512pt">
<g id="surface1">
<path d="M 62.132812 159.601562 C 62.132812 151.316406 55.417969 144.601562 47.132812 144.601562 L 15 144.601562 C 6.714844 144.601562 0 151.316406 0 159.601562 C 0 167.882812 6.714844 174.601562 15 174.601562 L 47.132812 174.601562 C 55.417969 174.601562 62.132812 167.882812 62.132812 159.601562 Z M 62.132812 159.601562 " style=" stroke:none;fill-rule:nonzero;fill:rgb(0%,0%,0%);fill-opacity:1;" />
<path d="M 497 144.601562 L 464.867188 144.601562 C 456.585938 144.601562 449.867188 151.316406 449.867188 159.601562 C 449.867188 167.882812 456.585938 174.601562 464.867188 174.601562 L 497 174.601562 C 505.285156 174.601562 512 167.882812 512 159.601562 C 512 151.316406 505.285156 144.601562 497 144.601562 Z M 497 144.601562 " style=" stroke:none;fill-rule:nonzero;fill:rgb(0%,0%,0%);fill-opacity:1;" />
<path d="M 67.613281 251.042969 L 39.785156 267.109375 C 32.613281 271.25 30.152344 280.425781 34.296875 287.597656 C 37.074219 292.410156 42.117188 295.101562 47.300781 295.101562 C 49.847656 295.101562 52.425781 294.453125 54.785156 293.089844 L 82.613281 277.023438 C 89.789062 272.882812 92.246094 263.707031 88.105469 256.53125 C 83.964844 249.359375 74.789062 246.898438 67.613281 251.042969 Z M 67.613281 251.042969 " style=" stroke:none;fill-rule:nonzero;fill:rgb(0%,0%,0%);fill-opacity:1;" />
<path d="M 436.898438 70.171875 C 439.441406 70.171875 442.019531 69.523438 444.382812 68.15625 L 472.210938 52.089844 C 479.386719 47.949219 481.84375 38.773438 477.703125 31.601562 C 473.5625 24.425781 464.386719 21.964844 457.210938 26.109375 L 429.382812 42.175781 C 422.207031 46.320312 419.75 55.492188 423.890625 62.667969 C 426.671875 67.480469 431.714844 70.171875 436.898438 70.171875 Z M 436.898438 70.171875 " style=" stroke:none;fill-rule:nonzero;fill:rgb(0%,0%,0%);fill-opacity:1;" />
<path d="M 472.214844 267.109375 L 444.382812 251.042969 C 437.207031 246.898438 428.035156 249.359375 423.894531 256.535156 C 419.75 263.710938 422.210938 272.882812 429.386719 277.023438 L 457.214844 293.089844 C 459.574219 294.453125 462.152344 295.101562 464.699219 295.101562 C 469.882812 295.101562 474.925781 292.410156 477.703125 287.597656 C 481.847656 280.425781 479.386719 271.25 472.214844 267.109375 Z M 472.214844 267.109375 " style=" stroke:none;fill-rule:nonzero;fill:rgb(0%,0%,0%);fill-opacity:1;" />
<path d="M 82.617188 42.175781 L 54.789062 26.113281 C 47.613281 21.972656 38.4375 24.429688 34.300781 31.605469 C 30.15625 38.777344 32.613281 47.953125 39.789062 52.09375 L 67.617188 68.15625 C 69.980469 69.519531 72.558594 70.171875 75.101562 70.171875 C 80.285156 70.171875 85.328125 67.480469 88.105469 62.664062 C 92.25 55.492188 89.789062 46.320312 82.617188 42.175781 Z M 82.617188 42.175781 " style=" stroke:none;fill-rule:nonzero;fill:rgb(0%,0%,0%);fill-opacity:1;" />
<path d="M 147.832031 383.46875 C 145.75 388.78125 144.597656 394.558594 144.597656 400.601562 C 144.597656 406.640625 145.746094 412.421875 147.828125 417.734375 L 364.171875 417.734375 C 366.253906 412.421875 367.398438 406.640625 367.398438 400.601562 C 367.398438 394.558594 366.25 388.78125 364.171875 383.46875 Z M 147.832031 383.46875 " style=" stroke:none;fill-rule:nonzero;fill:rgb(0%,0%,0%);fill-opacity:1;" />
<path d="M 256 0 C 167.996094 0 96.398438 71.597656 96.398438 159.601562 C 96.398438 210.246094 120.277344 257.511719 160.664062 287.605469 L 160.664062 289.199219 L 208.867188 289.199219 L 208.867188 230.082031 L 187.328125 208.542969 C 181.472656 202.6875 181.472656 193.1875 187.328125 187.328125 C 193.1875 181.472656 202.683594 181.472656 208.542969 187.328125 L 234.472656 213.261719 C 237.289062 216.074219 238.867188 219.890625 238.867188 223.867188 L 238.867188 289.199219 L 273.132812 289.199219 L 273.132812 223.867188 C 273.132812 219.886719 274.714844 216.074219 277.527344 213.261719 L 303.460938 187.328125 C 309.316406 181.472656 318.816406 181.472656 324.675781 187.328125 C 330.53125 193.1875 330.53125 202.683594 324.675781 208.542969 L 303.136719 230.078125 L 303.136719 289.199219 L 351.335938 289.199219 L 351.335938 287.605469 C 391.722656 257.511719 415.601562 210.246094 415.601562 159.601562 C 415.601562 71.597656 344.003906 0 256 0 Z M 256 0 " style=" stroke:none;fill-rule:nonzero;fill:rgb(0%,0%,0%);fill-opacity:1;" />
<path d="M 147.835938 319.199219 C 145.753906 324.511719 144.601562 330.289062 144.601562 336.332031 C 144.601562 342.375 145.75 348.152344 147.832031 353.46875 L 364.167969 353.46875 C 366.25 348.152344 367.398438 342.375 367.398438 336.332031 C 367.398438 330.289062 366.25 324.511719 364.164062 319.199219 Z M 147.835938 319.199219 " style=" stroke:none;fill-rule:nonzero;fill:rgb(0%,0%,0%);fill-opacity:1;" />
<path d="M 256 512 C 294.578125 512 326.773438 484.285156 333.808594 447.734375 L 178.195312 447.734375 C 185.230469 484.289062 217.425781 512 256 512 Z M 256 512 " style=" stroke:none;fill-rule:nonzero;fill:rgb(0%,0%,0%);fill-opacity:1;" />
</g>
</svg>