<svg xmlns="http://www.w3.org/2000/svg" viewBox="0 0 320 512" width="320" height="512">
	<style>
		tspan { white-space:pre }
		.shp0 { fill: #000000 } 
	</style>
	<g id="surface1">
		<path id="Layer" fill-rule="evenodd" class="shp0" d="M319.6 159.6C319.6 210.25 295.72 257.51 255.34 287.61L255.34 300.93C265.18 309.58 271.4 322.24 271.4 336.33C271.4 348.74 266.57 360.04 258.71 368.46C266.57 376.89 271.4 388.19 271.4 400.6C271.4 421.74 257.41 439.67 238.2 445.63C232.02 483.22 199.32 512 160 512C120.68 512 87.98 483.22 81.8 445.63C62.59 439.68 48.6 421.74 48.6 400.6C48.6 388.19 53.43 376.89 61.3 368.47C53.43 360.04 48.6 348.74 48.6 336.33C48.6 322.24 54.83 309.58 64.66 300.93L64.66 287.61C24.28 257.51 0.4 210.25 0.4 159.6C0.4 71.6 72 0 160 0C248 0 319.6 71.6 319.6 159.6ZM95.73 319.2C86.29 319.2 78.6 326.89 78.6 336.33C78.6 345.78 86.29 353.47 95.73 353.47L224.27 353.47C233.71 353.47 241.4 345.78 241.4 336.33C241.4 326.89 233.71 319.2 224.27 319.2L95.73 319.2ZM206.93 447.73L113.07 447.73C119.43 467.59 138.06 482 160 482C181.94 482 200.57 467.59 206.93 447.73ZM241.4 400.6C241.4 391.15 233.71 383.47 224.27 383.47L95.73 383.47C86.29 383.47 78.6 391.15 78.6 400.6C78.6 410.05 86.29 417.73 95.73 417.73L224.27 417.73C233.71 417.73 241.4 410.05 241.4 400.6ZM289.6 159.6C289.6 88.14 231.46 30 160 30C88.54 30 30.4 88.14 30.4 159.6C30.4 202.94 51.94 243.23 88.01 267.38C92.17 270.16 94.66 274.84 94.66 279.84L94.66 289.23C95.02 289.22 95.37 289.2 95.73 289.2L112.87 289.2L112.87 230.08L91.33 208.54C85.47 202.68 85.47 193.19 91.33 187.33C97.19 181.47 106.68 181.47 112.54 187.33L138.47 213.26C141.29 216.07 142.87 219.89 142.87 223.87L142.87 289.2L177.13 289.2L177.13 223.87C177.13 219.89 178.71 216.07 181.53 213.26L207.46 187.33C213.32 181.47 222.82 181.47 228.67 187.33C234.53 193.19 234.53 202.68 228.67 208.54L207.13 230.08L207.13 289.2L224.27 289.2C224.63 289.2 224.98 289.22 225.34 289.23L225.34 279.84C225.34 274.84 227.83 270.16 231.99 267.38C268.06 243.23 289.6 202.94 289.6 159.6Z" />
	</g>
</svg>