<?xml version="1.0" encoding="iso-8859-1"?>
<!-- Generator: Adobe Illustrator 19.0.0, SVG Export Plug-In . SVG Version: 6.00 Build 0)  -->
<svg xmlns="http://www.w3.org/2000/svg" xmlns:xlink="http://www.w3.org/1999/xlink" version="1.1" id="Layer_1" x="0px" y="0px" viewBox="0 0 512 512" style="enable-background:new 0 0 512 512;" xml:space="preserve" width="512" height="512">
<g>
	<g>
		<path d="M160.589,111.366c0-20.005-16.275-36.28-36.28-36.28s-36.28,16.275-36.28,36.28s16.275,36.28,36.28,36.28    S160.589,131.371,160.589,111.366z M103.028,111.366c0-11.734,9.546-21.28,21.28-21.28s21.28,9.546,21.28,21.28    s-9.546,21.28-21.28,21.28S103.028,123.1,103.028,111.366z"/>
		<path d="M297.752,147.646c20.006,0,36.281-16.275,36.281-36.28s-16.275-36.28-36.281-36.28c-20.005,0-36.28,16.275-36.28,36.28    S277.747,147.646,297.752,147.646z M297.752,90.085c11.734,0,21.281,9.546,21.281,21.28s-9.547,21.28-21.281,21.28    s-21.28-9.546-21.28-21.28S286.018,90.085,297.752,90.085z"/>
		<path d="M380.559,349.399c-4.143,0-7.5,3.358-7.5,7.5v81.179c0,2.168-1.764,3.933-3.932,3.933H52.935    c-2.168,0-3.933-1.764-3.933-3.933v-81.179c0-4.142-3.357-7.5-7.5-7.5s-7.5,3.358-7.5,7.5v81.179    c0,10.439,8.493,18.933,18.933,18.933h316.192c10.438,0,18.932-8.493,18.932-18.933v-81.179    C388.059,352.757,384.701,349.399,380.559,349.399z"/>
		<path d="M369.127,226.407H52.935c-10.439,0-18.933,8.493-18.933,18.933v81.179c0,4.142,3.357,7.5,7.5,7.5s7.5-3.358,7.5-7.5    V245.34c0-2.168,1.765-3.933,3.933-3.933h316.192c2.168,0,3.932,1.764,3.932,3.933v81.179c0,4.142,3.357,7.5,7.5,7.5    s7.5-3.358,7.5-7.5V245.34C388.059,234.9,379.565,226.407,369.127,226.407z"/>
		<path d="M299.436,342.445c0-48.747-39.658-88.405-88.405-88.405c-48.746,0-88.404,39.658-88.404,88.405    c0,48.747,39.658,88.405,88.404,88.405C259.777,430.851,299.436,391.192,299.436,342.445z M137.626,342.445    c0-40.476,32.929-73.405,73.404-73.405s73.405,32.929,73.405,73.405s-32.93,73.405-73.405,73.405S137.626,382.921,137.626,342.445    z"/>
		<path d="M258.186,342.433c0-3.958-1.968-7.63-5.264-9.823l-54.396-36.186c-3.624-2.413-8.265-2.634-12.105-0.577    s-6.227,6.042-6.227,10.399v72.373c0,4.357,2.386,8.342,6.227,10.399c1.749,0.937,3.663,1.401,5.572,1.401    c2.283,0,4.559-0.664,6.533-1.978l54.396-36.186C256.218,350.063,258.186,346.391,258.186,342.433z M195.194,372.642v-60.418    l45.411,30.209L195.194,372.642z"/>
		<path d="M500.438,212.812c-7.13-3.552-15.511-2.776-21.867,2.022l-56.511,42.649v-44.317c0-13.567-11.037-24.605-24.604-24.605    h-45.73c7.12-4.978,13.573-10.942,19.115-17.744c13.628-16.726,21.133-37.839,21.133-59.452c0-51.954-42.268-94.222-94.222-94.222    c-38.89,0-72.352,23.684-86.722,57.385c-14.37-33.701-47.832-57.385-86.722-57.385c-51.954,0-94.222,42.268-94.222,94.222    c0,21.613,7.505,42.727,21.133,59.452c5.542,6.802,11.995,12.766,19.115,17.744h-45.73C11.037,188.562,0,199.6,0,213.167v257.084    c0,13.567,11.037,24.604,24.604,24.604h372.852c13.567,0,24.604-11.038,24.604-24.604v-44.317l56.51,42.649    c3.71,2.8,8.107,4.23,12.545,4.23c3.166,0,6.354-0.729,9.323-2.208C507.57,467.054,512,459.899,512,451.932V231.486    C512,223.52,507.57,216.364,500.438,212.812z M297.752,32.144c43.683,0,79.222,35.539,79.222,79.222    c0,18.171-6.308,35.92-17.762,49.977c-11.129,13.658-26.612,23.302-43.672,27.219h-35.576    c-17.06-3.917-32.543-13.561-43.672-27.219c-11.454-14.057-17.762-31.806-17.762-49.977    C218.53,67.683,254.069,32.144,297.752,32.144z M211.03,148.174c3.44,8.112,8.016,15.75,13.633,22.644    c5.542,6.802,11.995,12.766,19.115,17.744h-65.496c7.12-4.978,13.573-10.942,19.115-17.744    C203.014,163.925,207.59,156.286,211.03,148.174z M62.849,161.343c-11.454-14.057-17.762-31.806-17.762-49.977    c0-43.683,35.539-79.222,79.222-79.222s79.222,35.539,79.222,79.222c0,18.171-6.308,35.92-17.762,49.977    c-11.129,13.658-26.612,23.302-43.672,27.219h-35.576C89.461,184.645,73.978,175.001,62.849,161.343z M407.061,470.251    c0,5.296-4.309,9.604-9.604,9.604H24.604c-5.296,0-9.604-4.309-9.604-9.604V213.167c0-5.296,4.309-9.605,9.604-9.605h372.852    c5.296,0,9.604,4.309,9.604,9.605V470.251z M497,451.932c0,3.276-2.271,4.761-3.249,5.248c-0.976,0.486-3.529,1.406-6.144-0.568    l-65.547-49.47V276.277l65.547-49.47c2.613-1.972,5.167-1.054,6.144-0.568c0.978,0.486,3.249,1.972,3.249,5.247V451.932z"/>
	</g>
</g>















</svg>
