<?xml version="1.0" encoding="iso-8859-1"?>
<!-- Generator: Adobe Illustrator 19.0.0, SVG Export Plug-In . SVG Version: 6.00 Build 0)  -->
<svg xmlns="http://www.w3.org/2000/svg" xmlns:xlink="http://www.w3.org/1999/xlink" version="1.1" id="Layer_1" x="0px" y="0px" viewBox="0 0 512 512" style="enable-background:new 0 0 512 512;" xml:space="preserve" width="512" height="512">
<g>
	<g>
		<g>
			<g>
				<g>
					<g>
						<g>
							<g>
								<circle cx="335.47" cy="44.262" r="7.988"/>
								<circle cx="373.767" cy="44.262" r="7.988"/>
								<circle cx="412.063" cy="44.262" r="7.988"/>
							</g>
						</g>
					</g>
				</g>
			</g>
		</g>
		<g>
			<path d="M102.727,249.271l50.376-32.946c0.767-0.575,1.915-0.766,2.873-0.766c4.022,0,9.194,4.214,9.194,9.577     c0,2.298-1.149,4.406-2.873,5.555l-40.225,26.433l40.225,26.433c1.724,0.958,2.873,3.064,2.873,5.555     c0,5.363-5.172,9.386-9.194,9.386c-0.958,0-2.106-0.191-2.873-0.766l-50.376-32.946c-2.873-1.915-4.214-5.171-4.214-7.662     S99.854,251.186,102.727,249.271z"/>
			<path d="M271.671,169.972c0,1.149-0.191,2.107-0.767,3.065l-70.296,140.209c-1.149,2.299-3.64,3.64-6.321,3.64     c-4.405,0-7.47-3.64-7.47-7.087c0-0.958,0.191-1.915,0.574-2.873l70.488-140.785c1.149-2.49,3.256-3.448,5.746-3.448     C267.457,162.693,271.671,165.566,271.671,169.972z"/>
			<path d="M355.568,264.786l-50.376,32.946c-0.767,0.575-1.725,0.766-2.682,0.766c-4.214,0-9.194-4.022-9.194-9.386     c0-2.49,1.149-4.597,2.682-5.555l40.416-26.433l-40.416-26.433c-1.532-1.149-2.682-3.256-2.682-5.555     c0-5.363,4.98-9.577,9.194-9.577c0.957,0,1.915,0.191,2.682,0.766l50.376,32.946c2.873,1.915,4.214,5.363,4.214,7.853     S358.633,262.871,355.568,264.786z"/>
		</g>
	</g>
	<g>
		<path d="M46.215,51.762h163.082c4.143,0,7.5-3.358,7.5-7.5s-3.357-7.5-7.5-7.5H46.215c-4.143,0-7.5,3.358-7.5,7.5    S42.072,51.762,46.215,51.762z"/>
		<path d="M286.405,446.914H24.188c-5.066,0-9.188-4.122-9.188-9.188V85.359h428.75v203.296c0,4.142,3.357,7.5,7.5,7.5    s7.5-3.358,7.5-7.5V27.353c0-13.337-10.851-24.188-24.188-24.188H24.188C10.851,3.164,0,14.015,0,27.353v410.373    c0,13.337,10.851,24.188,24.188,24.188h262.217c4.143,0,7.5-3.358,7.5-7.5S290.548,446.914,286.405,446.914z M24.188,18.164    h410.373c5.066,0,9.188,4.122,9.188,9.188v43.007H15V27.353C15,22.286,19.122,18.164,24.188,18.164z"/>
		<path d="M398.16,341.803c-29.331,0-53.193,23.862-53.193,53.193s23.862,53.193,53.193,53.193s53.193-23.862,53.193-53.193    S427.491,341.803,398.16,341.803z M398.16,433.189c-21.06,0-38.193-17.133-38.193-38.193s17.134-38.193,38.193-38.193    s38.193,17.133,38.193,38.193S419.22,433.189,398.16,433.189z"/>
		<path d="M494.159,371.263h-6.886c-1.239,0-2.347-0.797-2.692-1.94c-1.798-5.936-4.22-11.708-7.196-17.158    c-0.589-1.077-0.382-2.447,0.501-3.331l4.938-4.938c6.955-6.956,6.955-18.274,0-25.23l-8.334-8.333    c-6.954-6.955-18.273-6.957-25.231,0l-4.936,4.937c-0.885,0.884-2.255,1.09-3.331,0.502c-5.451-2.977-11.225-5.398-17.159-7.196    c-1.142-0.346-1.939-1.453-1.939-2.693v-6.885c0-9.838-8.004-17.841-17.842-17.841h-11.784c-9.838,0-17.841,8.003-17.841,17.841    v6.438c0,1.262-0.817,2.375-1.988,2.708c-6.12,1.74-12.075,4.137-17.699,7.123c-1.056,0.56-2.403,0.34-3.276-0.532l-4.402-4.402    c-3.37-3.37-7.85-5.226-12.615-5.226c-4.767,0-9.246,1.856-12.616,5.226l-8.332,8.333c-3.37,3.37-5.227,7.85-5.227,12.616    c0,4.766,1.856,9.246,5.227,12.616l3.952,3.952c0.896,0.896,1.1,2.27,0.498,3.34c-3.227,5.739-5.829,11.835-7.735,18.121    c-0.349,1.15-1.479,1.953-2.749,1.953h-5.302c-9.838,0-17.842,8.003-17.842,17.841v11.785c0,9.838,8.004,17.841,17.842,17.841    h4.889c1.272,0,2.391,0.808,2.72,1.967c1.843,6.487,4.42,12.782,7.66,18.709c0.573,1.05,0.356,2.4-0.529,3.286l-3.404,3.405    c-6.955,6.956-6.955,18.274,0,25.23l8.333,8.333c6.956,6.956,18.274,6.958,25.23,0l3.406-3.406    c0.885-0.885,2.234-1.102,3.285-0.528c5.926,3.24,12.22,5.817,18.709,7.66c1.158,0.329,1.967,1.447,1.967,2.72v4.889    c0,9.837,8.003,17.841,17.841,17.841h11.784c9.838,0,17.842-8.003,17.842-17.841v-5.302c0-1.271,0.803-2.401,1.953-2.75    c6.285-1.905,12.381-4.507,18.119-7.734c1.07-0.603,2.444-0.398,3.341,0.497l3.953,3.954c6.956,6.954,18.273,6.955,25.231,0    l8.333-8.333c6.955-6.956,6.955-18.274-0.001-25.231l-4.402-4.402c-0.874-0.874-1.092-2.22-0.532-3.275    c2.986-5.625,5.384-11.58,7.123-17.7c0.333-1.17,1.446-1.988,2.708-1.988h6.439c9.838,0,17.841-8.003,17.841-17.841v-11.785    C512,379.266,503.997,371.263,494.159,371.263z M497,400.888c0,1.567-1.274,2.841-2.841,2.841h-6.439    c-7.933,0-14.979,5.299-17.136,12.886c-1.452,5.106-3.451,10.074-5.943,14.768c-3.681,6.932-2.405,15.338,3.174,20.917    l4.402,4.402c1.107,1.108,1.107,2.91,0,4.018l-8.332,8.333c-1.109,1.107-2.911,1.107-4.019,0.001l-3.952-3.954    c-5.632-5.631-14.389-6.85-21.3-2.965c-4.79,2.693-9.877,4.864-15.119,6.454c-7.42,2.25-12.602,9.283-12.602,17.105v5.302    c0,1.566-1.274,2.841-2.842,2.841h-11.784c-1.566,0-2.841-1.274-2.841-2.841v-4.889c0-7.946-5.292-14.998-12.869-17.149    c-5.413-1.538-10.666-3.688-15.611-6.392c-2.634-1.439-5.534-2.139-8.425-2.139c-4.633,0-9.238,1.797-12.662,5.222l-3.406,3.405    c-1.107,1.106-2.909,1.108-4.017,0l-8.333-8.333c-1.107-1.108-1.107-2.91,0-4.019l3.403-3.404    c5.563-5.563,6.831-14.234,3.084-21.088c-2.704-4.946-4.854-10.198-6.392-15.61c-2.15-7.578-9.203-12.87-17.149-12.87h-4.889    c-1.567,0-2.842-1.274-2.842-2.841v-11.785c0-1.566,1.274-2.841,2.842-2.841h5.302c7.822,0,14.855-5.182,17.104-12.601    c1.59-5.243,3.761-10.33,6.455-15.121c3.884-6.91,2.664-15.668-2.967-21.299l-3.953-3.953c-0.724-0.724-0.832-1.569-0.832-2.009    c0-0.439,0.108-1.284,0.833-2.009l8.333-8.333c0.724-0.724,1.569-0.832,2.009-0.832c0.438,0,1.284,0.108,2.009,0.833l4.402,4.402    c5.578,5.579,13.982,6.855,20.917,3.174c4.693-2.492,9.662-4.492,14.767-5.943c7.588-2.157,12.887-9.204,12.887-17.137v-6.438    c0-1.567,1.274-2.841,2.841-2.841h11.784c1.567,0,2.842,1.274,2.842,2.841v6.885c0,7.916,5.06,14.767,12.59,17.048    c4.952,1.5,9.77,3.521,14.319,6.006c6.879,3.756,15.566,2.499,21.127-3.061l4.936-4.937c1.109-1.108,2.911-1.108,4.019,0    l8.333,8.333c1.107,1.108,1.107,2.91,0.001,4.018l-4.938,4.938c-5.558,5.559-6.816,14.246-3.06,21.126    c2.484,4.549,4.506,9.366,6.006,14.317c2.28,7.532,9.131,12.592,17.048,12.592h6.886c1.566,0,2.841,1.274,2.841,2.841V400.888z"/>
	</g>
</g>















</svg>
